<?xml version="1.0" encoding="iso-8859-1"?>
<!-- Generator: Adobe Illustrator 16.0.0, SVG Export Plug-In . SVG Version: 6.00 Build 0)  -->
<!DOCTYPE svg PUBLIC "-//W3C//DTD SVG 1.1//EN" "http://www.w3.org/Graphics/SVG/1.1/DTD/svg11.dtd">
<svg version="1.1" id="Capa_1" xmlns="http://www.w3.org/2000/svg" xmlns:xlink="http://www.w3.org/1999/xlink" x="0px" y="0px"
	 width="71.964px" height="71.964px" viewBox="0 0 71.964 71.964" style="enable-background:new 0 0 71.964 71.964;"
	 xml:space="preserve">
<g>
	<path d="M71.964,32.82c0,11.158-9.079,20.236-20.239,20.236c-1.49,0-2.996-0.174-4.494-0.519c-2.68,4.248-7.35,6.849-12.416,6.849
		c-6.163,0-11.591-3.83-13.72-9.498c-1.999,0.979-4.188,1.488-6.419,1.488C6.584,51.376,0,44.794,0,36.701
		c0-8.093,6.584-14.676,14.676-14.676c1.418,0,2.815,0.205,4.167,0.608c1.966-5.986,7.503-10.055,13.924-10.055
		c3.115,0,6.152,0.998,8.657,2.828c3.12-1.852,6.661-2.828,10.301-2.828C62.885,12.578,71.964,21.658,71.964,32.82z"/>
</g>
<g>
</g>
<g>
</g>
<g>
</g>
<g>
</g>
<g>
</g>
<g>
</g>
<g>
</g>
<g>
</g>
<g>
</g>
<g>
</g>
<g>
</g>
<g>
</g>
<g>
</g>
<g>
</g>
<g>
</g>
</svg>
